<svg xmlns="http://www.w3.org/2000/svg" viewBox="0 0 64 64">
  <!-- Chalkboard background -->
  <rect x="4" y="4" width="56" height="56" rx="6" fill="#1a201a" stroke="#5a4a32" stroke-width="3"/>
  <!-- Inner board -->
  <rect x="9" y="9" width="46" height="46" rx="3" fill="#223322"/>
  <!-- Chalk lightbulb -->
  <g transform="translate(32,28)" fill="none" stroke="#f5c842" stroke-width="2.5" stroke-linecap="round" stroke-linejoin="round">
    <!-- Bulb -->
    <path d="M0-12 C-8-12 -12-6 -12 0 C-12 6 -6 10 -4 13 L4 13 C6 10 12 6 12 0 C12-6 8-12 0-12Z"/>
    <!-- Base lines -->
    <line x1="-3" y1="16" x2="3" y2="16"/>
    <line x1="-2" y1="19" x2="2" y2="19"/>
    <!-- Rays -->
    <line x1="0" y1="-18" x2="0" y2="-22"/>
    <line x1="14" y1="-10" x2="17" y2="-13"/>
    <line x1="-14" y1="-10" x2="-17" y2="-13"/>
    <line x1="17" y1="3" x2="21" y2="3"/>
    <line x1="-17" y1="3" x2="-21" y2="3"/>
  </g>
</svg>
